<svg xmlns="http://www.w3.org/2000/svg" version="1.1"
    xmlns:xlink="http://www.w3.org/1999/xlink"
    xmlns:svgjs="http://svgjs.dev/svgjs" width="1920" height="1080" preserveAspectRatio="none" viewBox="0 0 1920 1080">
    <g mask="url(&quot;#SvgjsMask1008&quot;)" fill="none">
        <rect width="1920" height="1080" x="0" y="0" fill="url(&quot;#SvgjsLinearGradient1009&quot;)"></rect>
        <path d="M0 95C81.96 37.44 151.53 38.42 270 80.36C398.71 125.92 494.37 170.48 494.37 270C494.37 377.49 384.16 384.37 270 494.37C244.05 519.37 214.14 513.38 214.14 540C214.14 575.71 235.03 586.03 270 619.02C378.11 721.03 384.29 715.61 500.29 810C519.29 825.46 522.76 838.72 540 838.72C552.12 838.72 551.45 825.45 559.01 810C624.57 676.09 679.48 677.38 686.25 540C692.79 407.38 604.16 409.01 585.63 270C568.16 139.01 549.06 78.44 614.25 0C661.25 -56.56 712.13 0 810 0C945 0 945 0 1080 0C1215 0 1215 0 1350 0C1485 0 1485 0 1620 0C1755 0 1755 0 1890 0C1987.08 0 2011.22 -39.64 2084.16 0C2146.22 33.73 2138.28 69.43 2160 146.74C2176.2 204.43 2160 208.37 2160 270C2160 405 2160 405 2160 540C2160 675 2160 675 2160 810C2160 845.21 2184.92 859.66 2160 880.43C2049.92 972.16 2015.72 949.04 1890 1035C1869.78 1048.83 1890.77 1076.22 1868.11 1080C1755.77 1098.72 1744.05 1080 1620 1080C1485 1080 1485 1080 1350 1080C1215 1080 1215 1080 1080 1080C945 1080 945 1080 810 1080C675 1080 675 1080 540 1080C405 1080 405 1080 270 1080C135 1080 90 1125 0 1080C-45 1057.5 -6.27 1011.92 0 945C6.38 876.92 25.31 872.1 25.31 810C25.31 796.33 1.35 807.85 0 793.47C-11.31 672.85 0 666.74 0 540C0 405 0 405 0 270C0 182.5 -53.04 132.26 0 95" stroke="rgba(51, 121, 194, 0.58)" stroke-width="2"></path>
        <path d="M1080 246.72C1067.43 246.72 1058.91 257.48 1058.91 270C1058.91 285.59 1066.51 302.93 1080 302.93C1098.83 302.93 1123.55 284.76 1123.55 270C1123.55 256.65 1099.75 246.72 1080 246.72" stroke="rgba(51, 121, 194, 0.58)" stroke-width="2"></path>
        <path d="M1890 250.43C1878.1 250.43 1870.43 259.3 1870.43 270C1870.43 283.44 1876.8 298.72 1890 298.72C1912.54 298.72 1941.92 282.48 1941.92 270C1941.92 258.33 1913.85 250.43 1890 250.43" stroke="rgba(51, 121, 194, 0.58)" stroke-width="2"></path>
        <path d="M0 220C114.32 173.73 146.18 145.21 270 160.71C345.83 170.21 399.3 212.65 399.3 270C399.3 331.94 338.03 338.39 270 399.3C187.26 473.39 178.06 463.74 97.76 540C43.06 591.94 27.71 655.71 0 655.71C-21.17 655.71 0 597.86 0 540C0 405 0 405 0 270C0 245 -20.68 228.37 0 220" stroke="rgba(51, 121, 194, 0.58)" stroke-width="2"></path>
        <path d="M680.7 270C673.2 141.84 723.88 123.46 783 0C788.53 -11.54 796.5 0 810 0C945 0 945 0 1080 0C1198.13 0 1316.25 -30.42 1316.25 0C1316.25 34.75 1186.8 50.86 1080 130.34C1005.4 185.86 953.44 194.89 953.44 270C953.44 363.5 999.07 467.56 1080 467.56C1192.99 467.56 1225.61 377.78 1341.29 270C1360.61 252 1328.43 230.05 1350 216C1467.78 139.28 1493.69 164.57 1620 88.45C1672.91 56.57 1653.38 18.04 1708.45 0C1788.38 -26.18 1799.22 0 1890 0C1949.15 0 2008.31 -28.99 2008.31 0C2008.31 47.32 1953.37 80.02 1890 152.61C1835.52 215.02 1772.61 205.79 1772.61 270C1772.61 350.65 1806.05 413.08 1890 442.34C1999.74 480.58 2069.72 372.34 2160 405C2204.72 421.17 2160 472.5 2160 540C2160 563.48 2178.45 575.35 2160 586.96C2043.45 660.35 2009.64 630.54 1890 710C1841.72 742.06 1853.06 757.66 1824.15 810C1750.9 942.66 1769.59 969.02 1685.68 1080C1667.52 1104.02 1652.84 1080 1620 1080C1485 1080 1485 1080 1350 1080C1215 1080 1215 1080 1080 1080C945 1080 945 1080 810 1080C675 1080 675 1080 540 1080C481.15 1080 422.31 1101.24 422.31 1080C422.31 1052.41 490.72 1039.75 540 982.34C606.6 904.75 593.59 893.7 654.08 810C728.59 706.89 717.07 690.43 810 608.73C870.63 555.43 961.2 576.39 961.2 540C961.2 502.65 869.58 518.6 810 461.25C729.33 383.6 686.7 372.47 680.7 270" stroke="rgba(51, 121, 194, 0.58)" stroke-width="2"></path>
        <path d="M1620 439.84C1543.99 439.84 1468.54 487.45 1468.54 540C1468.54 595.03 1543.93 655 1620 655C1697.28 655 1775.25 594.99 1775.25 540C1775.25 487.41 1697.34 439.84 1620 439.84" stroke="rgba(51, 121, 194, 0.58)" stroke-width="2"></path>
        <path d="M236.25 810C236.25 794.92 253.32 783.66 270 783.66C286.08 783.66 301.76 795.03 301.76 810C301.76 828.97 286.19 851.54 270 851.54C253.43 851.54 236.25 828.86 236.25 810" stroke="rgba(51, 121, 194, 0.58)" stroke-width="2"></path>
        <path d="M1350 783C1332.32 783 1308.46 798.8 1308.46 810C1308.46 820.02 1330.8 825.43 1350 825.43C1359.75 825.43 1366.36 818.83 1366.36 810C1366.36 797.61 1361.27 783 1350 783" stroke="rgba(51, 121, 194, 0.58)" stroke-width="2"></path>
        <path d="M168.75 270C168.75 254.33 222.48 241.07 270 241.07C290.22 241.07 304.23 254.82 304.23 270C304.23 286.4 291.12 304.23 270 304.23C223.38 304.23 168.75 285.91 168.75 270" stroke="rgba(51, 121, 194, 0.58)" stroke-width="2"></path>
        <path d="M775.77 270C775.77 231.17 792.1 189 810 189C828.2 189 847.97 231.45 847.97 270C847.97 297.27 828.36 320.63 810 320.63C792.26 320.63 775.77 296.99 775.77 270" stroke="rgba(51, 121, 194, 0.58)" stroke-width="2"></path>
        <path d="M1080 13.97C1063.52 13.97 1046.25 3.63 1046.25 0C1046.25 -3.35 1063.13 0 1080 0C1092.65 0 1105.31 -3.26 1105.31 0C1105.31 3.72 1093.05 13.97 1080 13.97" stroke="rgba(51, 121, 194, 0.58)" stroke-width="2"></path>
        <path d="M1520.53 270C1520.53 238.16 1575.05 204.83 1620 204.83C1652.18 204.83 1674.78 237.87 1674.78 270C1674.78 300.94 1651.83 330.97 1620 330.97C1574.7 330.97 1520.53 301.23 1520.53 270" stroke="rgba(51, 121, 194, 0.58)" stroke-width="2"></path>
        <path d="M1890 54.78C1860.33 54.78 1824.83 15.51 1824.83 0C1824.83 -11.88 1857.41 0 1890 0C1911.24 0 1932.47 -10.41 1932.47 0C1932.47 16.98 1914.15 54.78 1890 54.78" stroke="rgba(51, 121, 194, 0.58)" stroke-width="2"></path>
        <path d="M749.15 810C773.61 766.95 771.36 731.45 810 731.45C873.79 731.45 912.08 746.04 954 810C1026.31 920.31 1078.29 1005.31 1038.46 1080C1006.29 1140.31 924.23 1080 810 1080C711 1080 624.03 1133.37 612 1080C593.6 998.37 674.61 941.22 749.15 810" stroke="rgba(51, 121, 194, 0.58)" stroke-width="2"></path>
        <path d="M1570.91 810C1570.91 789.59 1596.21 780 1620 780C1640.51 780 1659.51 790.7 1659.51 810C1659.51 842.52 1641.52 883.64 1620 883.64C1597.22 883.64 1570.91 841.41 1570.91 810" stroke="rgba(51, 121, 194, 0.58)" stroke-width="2"></path>
        <path d="M1170 1080C1170 1064.14 1264.2 1018.29 1350 1018.29C1399.2 1018.29 1440 1063.09 1440 1080C1440 1093.95 1395 1080 1350 1080C1260 1080 1170 1095 1170 1080" stroke="rgba(51, 121, 194, 0.58)" stroke-width="2"></path>
    </g>
    <defs>
        <mask id="SvgjsMask1008">
            <rect width="1920" height="1080" fill="#ffffff"></rect>
        </mask>
        <linearGradient x1="10.94%" y1="-19.44%" x2="89.06%" y2="119.44%" gradientUnits="userSpaceOnUse" id="SvgjsLinearGradient1009">
            <stop stop-color="#0e2a47" offset="0"></stop>
            <stop stop-color="rgba(0, 0, 0, 1)" offset="1"></stop>
        </linearGradient>
    </defs>
</svg>