<svg xmlns="http://www.w3.org/2000/svg" version="1.1"
    xmlns:xlink="http://www.w3.org/1999/xlink"
    xmlns:svgjs="http://svgjs.dev/svgjs" width="1920" height="1080" preserveAspectRatio="none" viewBox="0 0 1920 1080">
    <g mask="url(&quot;#SvgjsMask1028&quot;)" fill="none">
        <rect width="1920" height="1080" x="0" y="0" fill="url(&quot;#SvgjsLinearGradient1029&quot;)"></rect>
        <path d="M540 231.43C521.11 231.43 522.6 248.4 515.77 270C473.85 402.68 434.22 418.53 442.5 540C446.34 596.34 496.48 625.61 540 625.61C574.97 625.61 584.21 588.89 599.49 540C639.8 411.08 672.01 378.04 651.18 270C642.26 223.75 588.81 231.43 540 231.43" stroke="" stroke-width="2"></path>
        <path d="M776.25 0C818.26 15.75 792.62 101.25 810 101.25C827.5 101.25 803.51 15.93 846 0C938.51 -34.69 963 0 1080 0C1205.36 0 1207.86 -7.09 1330.71 0C1342.86 0.7 1340.22 15.58 1350 15.58C1360.25 15.58 1358.03 0.73 1370.77 0C1493.03 -7.06 1495.39 0 1620 0C1755 0 1755 0 1890 0C2019.13 0 2048.37 -33.3 2148.26 0C2183.37 11.7 2158.03 44.75 2160 90C2163.9 179.75 2160 180 2160 270C2160 405 2160 405 2160 540C2160 675 2160 675 2160 810C2160 945 2227.5 1012.5 2160 1080C2092.5 1147.5 2025 1080 1890 1080C1755 1080 1755 1080 1620 1080C1485 1080 1485 1080 1350 1080C1215 1080 1215 1080 1080 1080C1071 1080 1069.42 1084.94 1062 1080C934.42 994.94 904.83 900 810 900C752.58 900 820 1038.33 757.5 1080C685 1128.33 648.75 1080 540 1080C405 1080 405 1080 270 1080C181.4 1080 172.57 1103.71 92.81 1080C37.57 1063.58 18.23 1052.75 0 999.73C-28.18 917.75 0 904.87 0 810C0 675 0 675 0 540C0 405 0 405 0 270C0 135 -67.5 67.5 0 0C67.5 -67.5 135 0 270 0C405 0 405 0 540 0C658.13 0 683.26 -34.87 776.25 0" stroke="" stroke-width="2"></path>
        <path d="M1620 183.4C1572 184.25 1589.42 230.6 1550.45 270C1454.42 367.07 1447.33 360.36 1350 456.34C1310.44 495.36 1276.67 499.82 1276.67 540C1276.67 576.59 1304.12 591.84 1350 609.88C1475.79 659.34 1504.13 696.66 1620 675C1691.06 661.72 1675.33 609.92 1723.85 540C1810.33 415.36 1797.14 399.77 1890 285.88C1907.22 264.77 1944 275.57 1944 270C1944 264.63 1916.19 271 1890 264C1754.19 227.7 1741.77 181.25 1620 183.4" stroke="" stroke-width="2"></path>
        <path d="M540 93.67C477.18 175.84 484.13 181.53 429.23 270C349.13 399.07 352.83 402.57 270 528.75C264.21 537.57 255.1 530.05 252 540C211.23 670.68 254.54 704.28 182.25 810C128.54 888.54 61.76 908.51 0 908.51C-29.37 908.51 0 859.26 0 810C0 675 0 675 0 540C0 405 0 405 0 270C0 135 -67.5 67.5 0 0C67.5 -67.5 135 0 270 0C405 0 405 0 540 0C587.82 0 635.63 -19.52 635.63 0C635.63 27.32 580.38 40.84 540 93.67" stroke="" stroke-width="2"></path>
        <path d="M882.32 270C946.17 138.69 919.19 104.92 996 0C1018.03 -30.08 1038 0 1080 0C1125 0 1132.19 -20.36 1170 0C1267.19 52.33 1267.49 65.29 1350 145.38C1406.58 200.29 1448.18 211.49 1448.18 270C1448.18 319.44 1395.95 312.59 1350 361.27C1268.53 447.59 1193.33 454.15 1193.33 540C1193.33 618.16 1264.75 623.57 1350 689.29C1439.87 758.57 1543.58 737.14 1543.58 810C1543.58 900.1 1466.68 980.53 1350 1015.2C1234.89 1049.41 1201.96 1006.37 1080 947.76C988.47 903.77 997.79 882.66 923.02 810C862.79 751.47 861.36 751.69 810 685.38C756.8 616.69 713.9 613.56 713.9 540C713.9 462.12 761.18 460.77 810 382.5C845.39 325.77 853.17 329.94 882.32 270" stroke="" stroke-width="2"></path>
        <path d="M1620 56.04C1575.86 41.5 1543.85 15.52 1543.85 0C1543.85 -12.5 1581.93 0 1620 0C1755 0 1755 0 1890 0C1945.76 0 2001.52 -23.46 2001.52 0C2001.52 33.54 1959.83 103.74 1890 114C1769.07 131.76 1748.93 98.5 1620 56.04" stroke="" stroke-width="2"></path>
        <path d="M1934.18 540C2036.78 438.78 2090.92 354.63 2160 354.63C2203.83 354.63 2160 447.32 2160 540C2160 630 2196.57 650.05 2160 720C2126 785.05 2077.99 752.66 2018.86 810C1942.99 883.57 1958.66 981.82 1890 981.82C1815.48 981.82 1732.5 897.77 1732.5 810C1732.5 717.36 1816.66 719.18 1890 621C1917.5 584.18 1901.78 571.97 1934.18 540" stroke="" stroke-width="2"></path>
        <path d="M489.38 810C513.59 797.74 515.19 790.24 540 790.24C559.79 790.24 570.36 790.77 578.57 810C632.23 935.65 677.17 986.06 663.75 1080C657.88 1121.06 601.88 1080 540 1080C405 1080 405 1080 270 1080C234.14 1080 198.28 1102.79 198.28 1080C198.28 1026.29 211.11 981.63 270 927C356.66 846.63 378.59 866.12 489.38 810" stroke="" stroke-width="2"></path>
        <path d="M234.78 0C258 2.9 261.11 11.5 270 33.75C315.06 146.5 342.69 156.5 342.69 270C342.69 333.69 321.48 344.1 270 388.13C163.64 479.1 92.99 431.46 27 540C-35.26 642.4 26.27 678.8 13.5 810C12.77 817.45 4.57 817.3 0 817.3C-2.18 817.3 0 813.65 0 810C0 675 0 675 0 540C0 405 0 405 0 270C0 135 -62.79 72.21 0 0C54.6 -62.79 123 -13.97 234.78 0" stroke="" stroke-width="2"></path>
        <path d="M1002.86 270C1038.25 188.59 1018.44 110 1080 110C1184.07 110 1327.2 170.85 1334.12 270C1342.2 385.85 1181.62 387.82 1110 540C1054.56 657.82 1129.1 810 1080 810C1020.64 810 913.51 683.04 893.08 540C874.94 413.04 944.79 403.59 1002.86 270" stroke="" stroke-width="2"></path>
        <path d="M2056.91 540C2056.91 498.06 2128.46 455.37 2160 455.37C2180.01 455.37 2160 497.68 2160 540C2160 581.09 2179.79 622.17 2160 622.17C2128.25 622.17 2056.91 581.46 2056.91 540" stroke="" stroke-width="2"></path>
        <path d="M1080 810C1080 782.42 1219.25 768.71 1350 768.71C1387.36 768.71 1416.23 785.08 1416.23 810C1416.23 840.82 1393.21 880.2 1350 880.2C1225.1 880.2 1080 838.17 1080 810" stroke="" stroke-width="2"></path>
        <path d="M405 1080C405 1060.88 485.36 1008 540 1008C567.86 1008 570 1054 570 1080C570 1090 555 1080 540 1080C472.5 1080 405 1096.88 405 1080" stroke="" stroke-width="2"></path>
    </g>
    <defs>
        <mask id="SvgjsMask1028">
            <rect width="1920" height="1080" fill="#ffffff"></rect>
        </mask>
        <linearGradient x1="89.06%" y1="119.44%" x2="10.94%" y2="-19.44%" gradientUnits="userSpaceOnUse" id="SvgjsLinearGradient1029">
            <stop stop-color="#0e2a47" offset="0"></stop>
            <stop stop-color="rgba(0, 0, 0, 1)" offset="1"></stop>
        </linearGradient>
    </defs>
</svg>