<svg xmlns="http://www.w3.org/2000/svg" version="1.1"
    xmlns:xlink="http://www.w3.org/1999/xlink"
    xmlns:svgjs="http://svgjs.dev/svgjs" width="1920" height="1080" preserveAspectRatio="none" viewBox="0 0 1920 1080">
    <g mask="url(&quot;#SvgjsMask1272&quot;)" fill="none">
        <rect width="1920" height="1080" x="0" y="0" fill="url(&quot;#SvgjsLinearGradient1273&quot;)"></rect>
        <path d="M109 1080L1189 0L1387 0L307 1080z" fill="url(&quot;#SvgjsLinearGradient1274&quot;)"></path>
        <path d="M758.6 1080L1838.6 0L2455.1 0L1375.1 1080z" fill="url(&quot;#SvgjsLinearGradient1274&quot;)"></path>
        <path d="M1824 1080L744 0L223.5 0L1303.5 1080z" fill="url(&quot;#SvgjsLinearGradient1275&quot;)"></path>
        <path d="M1184.4 1080L104.40000000000009 0L-725.0999999999999 0L354.9000000000001 1080z" fill="url(&quot;#SvgjsLinearGradient1275&quot;)"></path>
        <path d="M1113.1012080117564 1080L1920 273.1012080117564L1920 1080z" fill="url(&quot;#SvgjsLinearGradient1274&quot;)"></path>
        <path d="M0 1080L806.8987919882436 1080L 0 273.1012080117564z" fill="url(&quot;#SvgjsLinearGradient1275&quot;)"></path>
    </g>
    <defs>
        <mask id="SvgjsMask1272">
            <rect width="1920" height="1080" fill="#ffffff"></rect>
        </mask>
        <linearGradient x1="10.94%" y1="-19.44%" x2="89.06%" y2="119.44%" gradientUnits="userSpaceOnUse" id="SvgjsLinearGradient1273">
            <stop stop-color="#0e2a47" offset="0"></stop>
            <stop stop-color="rgba(4, 4, 4, 1)" offset="1"></stop>
        </linearGradient>
        <linearGradient x1="0%" y1="100%" x2="100%" y2="0%" id="SvgjsLinearGradient1274">
            <stop stop-color="rgba(15, 70, 185, 0.2)" offset="0"></stop>
            <stop stop-opacity="0" stop-color="rgba(15, 70, 185, 0.2)" offset="0.66"></stop>
        </linearGradient>
        <linearGradient x1="100%" y1="100%" x2="0%" y2="0%" id="SvgjsLinearGradient1275">
            <stop stop-color="rgba(15, 70, 185, 0.2)" offset="0"></stop>
            <stop stop-opacity="0" stop-color="rgba(15, 70, 185, 0.2)" offset="0.66"></stop>
        </linearGradient>
    </defs>
</svg>