<svg xmlns="http://www.w3.org/2000/svg" version="1.1"
    xmlns:xlink="http://www.w3.org/1999/xlink"
    xmlns:svgjs="http://svgjs.dev/svgjs" width="1980" height="1080" preserveAspectRatio="none" viewBox="0 0 1980 1080">
    <g mask="url(&quot;#SvgjsMask1038&quot;)" fill="none">
        <rect width="1980" height="1080" x="0" y="0" fill="rgba(0, 0, 0, 1)"></rect>
        <path d="M0,707.884C137.457,716.001,265.977,664.563,393.132,611.725C544.859,548.676,731.69,514.211,811.58,370.636C891.892,226.304,825.189,48.166,797.304,-114.635C770.142,-273.213,762.046,-447.642,651.415,-564.455C542.072,-679.908,372.338,-711.792,214.385,-730.128C74.308,-746.388,-55.821,-687.833,-194.574,-662.659C-353.208,-633.878,-532.844,-671.172,-659.611,-571.556C-792.236,-467.336,-860.907,-294.014,-877.321,-126.14C-893.393,38.238,-847.184,209.265,-748.937,342.028C-658.771,463.871,-500.58,500.463,-364.385,566.994C-244.956,625.335,-132.686,700.049,0,707.884" fill="#000000"></path>
        <path d="M1980 2009.4850000000001C2155.117 2005.575 2330.691 1946.461 2463.2799999999997 1831.999 2587.872 1724.441 2624.107 1554.829 2684.172 1401.584 2740.822 1257.052 2835.7619999999997 1113.512 2804.497 961.455 2773.62 811.2850000000001 2639.822 708.299 2521.563 610.733 2418.366 525.594 2294.827 481.899 2168.803 436.99800000000005 2035.063 389.34799999999996 1901.842 311.523 1762.836 340.40599999999995 1620.441 369.994 1505.521 476.86800000000005 1417.981 593.008 1334.0140000000001 704.408 1309.579 842.9490000000001 1281.112 979.515 1250.79 1124.981 1213.2849999999999 1270.109 1246.659 1414.906 1284.7440000000001 1580.142 1350.933 1747.1019999999999 1482.6480000000001 1853.894 1620.367 1965.554 1802.746 2013.443 1980 2009.4850000000001" fill="#000000"></path>
    </g>
    <defs>
        <mask id="SvgjsMask1038">
            <rect width="1980" height="1080" fill="#ffffff"></rect>
        </mask>
    </defs>
</svg>